<?xml version="1.0" encoding="UTF-8"?>
<svg xmlns="http://www.w3.org/2000/svg" xmlns:xlink="http://www.w3.org/1999/xlink" width="1900pt" height="1189pt" viewBox="0 0 1900 1189" version="1.1">
<g id="surface1">
<path style=" stroke:none;fill-rule:nonzero;fill:rgb(29.803922%,78.039216%,91.372549%);fill-opacity:1;" d="M 957.457031 1037.863281 L 1340.65625 1188.1875 L 1340.65625 0.84375 L 957.457031 151.167969 Z M 957.457031 1037.863281 "/>
<path style=" stroke:none;fill-rule:nonzero;fill:rgb(100%,100%,100%);fill-opacity:1;" d="M 0 452.496094 L 65.710938 452.496094 L 65.710938 497.066406 C 81.730469 465.203125 110.425781 445.769531 141.351562 445.839844 C 199.316406 445.839844 244.046875 497.722656 244.046875 591.441406 L 244.046875 596.089844 C 244.046875 689.882812 199.871094 743.085938 141.351562 743.085938 C 110.578125 744.582031 81.578125 725.746094 65.710938 693.953125 L 65.710938 834.308594 L 0 834.308594 Z M 177.238281 596.832031 L 177.238281 592.183594 C 177.238281 534.238281 153.496094 506.382812 120.914062 506.382812 C 86.675781 506.382812 62.949219 534.984375 62.949219 592.183594 L 62.949219 596.832031 C 62.949219 654.03125 85.589844 681.976562 120.914062 681.976562 C 157.371094 681.308594 177.238281 652.042969 177.238281 596.832031 Z M 177.238281 596.832031 "/>
<path style=" stroke:none;fill-rule:nonzero;fill:rgb(100%,100%,100%);fill-opacity:1;" d="M 279.394531 636.085938 L 279.394531 452.496094 L 344.550781 452.496094 L 344.550781 624.839844 C 344.550781 663.464844 357.796875 682.039062 385.410156 682.039062 C 413.023438 682.039062 434.558594 661.414062 434.558594 619.519531 L 434.558594 452.496094 L 499.710938 452.496094 L 499.710938 737.1875 L 435.097656 737.1875 L 435.097656 692.617188 C 420.652344 725.96875 391.152344 745.8125 360.003906 743.128906 C 313.628906 743.175781 279.394531 710.578125 279.394531 636.085938 Z M 279.394531 636.085938 "/>
<path style=" stroke:none;fill-rule:nonzero;fill:rgb(100%,100%,100%);fill-opacity:1;" d="M 549.957031 323.449219 L 615.113281 323.449219 L 615.113281 736.472656 L 549.957031 736.472656 Z M 549.957031 323.449219 "/>
<path style=" stroke:none;fill-rule:nonzero;fill:rgb(100%,100%,100%);fill-opacity:1;" d="M 673.632812 652.710938 L 673.632812 508.375 L 643.269531 508.375 L 643.269531 452.496094 L 673.632812 452.496094 L 673.632812 391.300781 L 738.789062 391.300781 L 738.789062 452.496094 L 788.480469 452.496094 L 788.480469 508.375 L 738.789062 508.375 L 738.789062 645.355469 C 738.789062 667.96875 748.175781 679.273438 764.6875 679.273438 C 773.195312 679.691406 781.675781 677.875 789.539062 673.957031 L 789.539062 735.152344 C 776.746094 740.378906 763.285156 742.855469 749.777344 742.460938 C 700.691406 742.503906 673.632812 711.898438 673.632812 652.710938 Z M 673.632812 652.710938 "/>
<path style=" stroke:none;fill-rule:nonzero;fill:rgb(100%,100%,100%);fill-opacity:1;" d="M 1511.273438 452.496094 L 1576.984375 452.496094 L 1576.984375 507.035156 C 1589.414062 469.941406 1620.015625 446.433594 1653.175781 448.5 L 1653.175781 521.671875 C 1604.585938 521.003906 1576.984375 540.300781 1576.984375 594.839844 L 1576.984375 737.1875 L 1511.273438 737.1875 Z M 1511.273438 452.496094 "/>
<path style=" stroke:none;fill-rule:nonzero;fill:rgb(100%,100%,100%);fill-opacity:1;" d="M 1679.679688 636.085938 L 1679.679688 452.496094 L 1744.835938 452.496094 L 1744.835938 624.839844 C 1744.835938 663.464844 1758.082031 682.039062 1785.695312 682.039062 C 1813.3125 682.039062 1834.84375 661.414062 1834.84375 619.519531 L 1834.84375 452.496094 L 1900 452.496094 L 1900 737.1875 L 1834.84375 737.1875 L 1834.84375 692.617188 C 1820.398438 725.96875 1790.898438 745.8125 1759.746094 743.128906 C 1713.917969 743.175781 1679.679688 710.578125 1679.679688 636.085938 Z M 1679.679688 636.085938 "/>
</g>
</svg>
